<svg width="18" height="22" viewBox="0 0 18 22" fill="none" xmlns="http://www.w3.org/2000/svg">
<g clip-path="url(#clip0_0_2850)">
<path d="M8.97024 1.5C2.58324 1.5 1.50424 2.432 1.50424 9.929C1.50424 18.322 1.34724 20.5 2.94324 20.5C4.53824 20.5 7.14324 16.816 8.97024 16.816C10.7972 16.816 13.4022 20.5 14.9972 20.5C16.5932 20.5 16.4362 18.322 16.4362 9.929C16.4362 2.432 15.3572 1.5 8.97024 1.5Z" fill="#F9D8D8"/>
<path fill-rule="evenodd" clip-rule="evenodd" d="M8.97025 0.75C7.36888 0.75 6.03824 0.807084 4.9588 1.02799C3.86579 1.25168 2.96498 1.65608 2.2882 2.39749C1.6194 3.13015 1.24728 4.10742 1.03399 5.31915C0.821086 6.52872 0.754249 8.04736 0.754249 9.929C0.754249 10.6551 0.753017 11.3368 0.751861 11.9764L0.75186 11.9766C0.746394 15.0013 0.742635 17.0807 0.879012 18.4369C0.96038 19.2461 1.10069 19.9329 1.40921 20.4262C1.57513 20.6915 1.79548 20.9113 2.0816 21.0577C2.3626 21.2015 2.65927 21.25 2.94325 21.25C3.59203 21.25 4.22111 20.8931 4.7289 20.5403C5.22411 20.1962 5.74537 19.7508 6.23839 19.3295L6.23987 19.3282L6.35667 19.2284C6.90158 18.7633 7.41338 18.3339 7.89368 18.0186C8.39188 17.6915 8.74209 17.566 8.97025 17.566C9.19841 17.566 9.54862 17.6915 10.0468 18.0186C10.5271 18.3339 11.0389 18.7633 11.5839 19.2284L11.7006 19.3282L11.7027 19.33C12.1956 19.7512 12.7166 20.1964 13.2116 20.5403C13.7194 20.8931 14.3485 21.25 14.9973 21.25C15.2812 21.25 15.5779 21.2015 15.8589 21.0577C16.145 20.9113 16.3654 20.6915 16.5313 20.4262C16.8398 19.9329 16.9801 19.2461 17.0615 18.4369C17.1978 17.0816 17.1941 15.0039 17.1887 11.9823L17.1887 11.9766C17.1875 11.337 17.1863 10.6552 17.1863 9.929C17.1863 8.04736 17.1194 6.52872 16.9065 5.31915C16.6932 4.10742 16.3211 3.13015 15.6523 2.39749C14.9755 1.65608 14.0747 1.25168 12.9817 1.02799C11.9023 0.807084 10.5716 0.75 8.97025 0.75ZM2.25425 9.929C2.25425 8.06214 2.32229 6.65291 2.51129 5.57919C2.6999 4.50764 2.99672 3.84622 3.39605 3.40876C3.7874 2.98004 4.3539 2.68288 5.25955 2.49754C6.17876 2.30942 7.37812 2.25 8.97025 2.25C10.5624 2.25 11.7618 2.30942 12.681 2.49754C13.5866 2.68288 14.1531 2.98004 14.5445 3.40876C14.9438 3.84622 15.2406 4.50764 15.4292 5.57919C15.6182 6.65291 15.6863 8.06214 15.6863 9.929C15.6863 10.6729 15.6874 11.3657 15.6885 12.0109C15.6937 15.0367 15.697 17.014 15.569 18.2868C15.4902 19.0713 15.3705 19.4535 15.2595 19.6309C15.2157 19.7009 15.1865 19.7168 15.1757 19.7223C15.1598 19.7305 15.1123 19.75 14.9973 19.75C14.8485 19.75 14.5539 19.6464 14.0675 19.3085C13.6366 19.009 13.1704 18.6109 12.6586 18.1737L12.6579 18.1731L12.5577 18.0876C12.0236 17.6317 11.4419 17.1401 10.8701 16.7647C10.3161 16.401 9.65559 16.066 8.97025 16.066C8.28491 16.066 7.62437 16.401 7.07045 16.7647C6.49862 17.1401 5.91692 17.6317 5.38283 18.0876L5.28259 18.1732L5.2805 18.175C4.76926 18.6116 4.30354 19.0093 3.87298 19.3085C3.38664 19.6464 3.09198 19.75 2.94325 19.75C2.82823 19.75 2.78069 19.7305 2.76479 19.7223C2.75401 19.7168 2.72478 19.7009 2.68097 19.6309C2.57006 19.4535 2.45037 19.0713 2.37149 18.2868C2.2435 17.0141 2.24685 15.0369 2.25198 12.0115L2.25198 12.011C2.25308 11.3658 2.25425 10.6729 2.25425 9.929ZM5.54248 7.4677C5.12827 7.4677 4.79248 7.80348 4.79248 8.2177C4.79248 8.63191 5.12827 8.9677 5.54248 8.9677H12.3975C12.8117 8.9677 13.1475 8.63191 13.1475 8.2177C13.1475 7.80348 12.8117 7.4677 12.3975 7.4677H5.54248Z" fill="#E23E3E"/>
</g>
<defs>
<clipPath id="clip0_0_2850">
<rect width="16.4408" height="20.5" fill="white" transform="translate(0.749878 0.75)"/>
</clipPath>
</defs>
</svg>
