<svg width="40" height="40" viewBox="0 0 40 40" fill="none" xmlns="http://www.w3.org/2000/svg">
<rect opacity="0.01" width="40" height="40" fill="white"/>
<rect opacity="0.01" x="8" y="8" width="24" height="24" fill="white"/>
<g clip-path="url(#clip0_0_2703)">
<path fill-rule="evenodd" clip-rule="evenodd" d="M13.698 14.9784C14.0273 14.6882 14.3977 14.3598 14.8103 13.9777C15.0758 13.7632 15.3482 13.5313 15.6298 13.2914L15.6299 13.2913C16.1751 12.8269 16.7553 12.3328 17.3895 11.878C18.3614 11.1812 19.2413 10.75 19.9584 10.75C20.6779 10.75 21.5699 11.1812 22.5548 11.877C23.2181 12.3455 23.833 12.8641 24.4041 13.3459C24.6663 13.567 24.9193 13.7804 25.1635 13.9776C25.5761 14.3598 25.9465 14.6882 26.2757 14.9784L26.4115 15.098L26.412 15.0984C26.691 15.3442 26.9339 15.5581 27.1521 15.7596C27.6573 16.226 27.9764 16.5782 28.202 16.972C28.6543 17.7617 28.8224 18.8689 28.8224 21.713C28.8224 23.7691 28.6993 25.2451 28.4212 26.3153C28.1482 27.3658 27.7413 27.9679 27.2022 28.3548C26.6391 28.759 25.8354 28.9997 24.625 29.1245C23.4157 29.2491 21.9074 29.25 19.9864 29.25C18.0654 29.25 16.5571 29.2491 15.3478 29.1245C14.1374 28.9997 13.3336 28.759 12.7706 28.3548C12.2315 27.9679 11.8245 27.3658 11.5516 26.3153C11.2735 25.2451 11.1504 23.7691 11.1504 21.713C11.1504 18.869 11.3187 17.7618 11.7712 16.9722C11.997 16.5783 12.3162 16.2261 12.8215 15.7596C13.0396 15.5582 13.2825 15.3443 13.5614 15.0988L13.698 14.9784ZM19.9584 9.25C18.7325 9.25 17.5158 9.94178 16.5155 10.659C15.8354 11.1466 15.1543 11.7257 14.5803 12.2137C14.3088 12.4445 14.0612 12.655 13.8491 12.8258C13.8355 12.8367 13.8222 12.8482 13.8094 12.8601C13.4034 13.2366 13.038 13.5607 12.7062 13.8532L12.5717 13.9716L12.5705 13.9727C12.2934 14.2167 12.0359 14.4434 11.804 14.6574C11.2647 15.1553 10.8107 15.6315 10.4698 16.2263C9.78904 17.4142 9.65039 18.926 9.65039 21.713C9.65039 23.8004 9.7722 25.432 10.0998 26.6926C10.4324 27.9727 10.9919 28.9245 11.8959 29.5734C12.776 30.2051 13.892 30.4824 15.194 30.6166C16.4887 30.75 18.073 30.75 19.9492 30.75H20.0236C21.8998 30.75 23.4841 30.75 24.7788 30.6166C26.0808 30.4824 27.1968 30.2051 28.0769 29.5734C28.9809 28.9245 29.5404 27.9727 29.873 26.6926C30.2006 25.432 30.3224 23.8004 30.3224 21.713C30.3224 18.9261 30.184 17.4143 29.5036 16.2265C29.1628 15.6316 28.7089 15.1554 28.1696 14.6575C27.9372 14.4429 27.679 14.2155 27.4011 13.9708L27.2676 13.8532C26.9358 13.5607 26.5704 13.2366 26.1644 12.8601C26.1516 12.8482 26.1384 12.8368 26.1248 12.8259C25.9223 12.6627 25.6903 12.4673 25.4374 12.2542C24.8445 11.7545 24.1362 11.1576 23.4203 10.6518C22.4074 9.93633 21.1809 9.25 19.9584 9.25ZM17.0791 23.3857C16.6649 23.3857 16.3291 23.7215 16.3291 24.1357C16.3291 24.55 16.6649 24.8857 17.0791 24.8857H22.8941C23.3083 24.8857 23.6441 24.55 23.6441 24.1357C23.6441 23.7215 23.3083 23.3857 22.8941 23.3857H17.0791Z" fill="#A9A9A9"/>
</g>
<defs>
<clipPath id="clip0_0_2703">
<rect width="20.672" height="21.5" fill="white" transform="translate(9.65039 9.25)"/>
</clipPath>
</defs>
</svg>
