<svg width="40" height="40" viewBox="0 0 40 40" fill="none" xmlns="http://www.w3.org/2000/svg">
<rect opacity="0.01" width="40" height="40" fill="white"/>
<rect opacity="0.01" x="8" y="8" width="24" height="24" fill="white"/>
<path fill-rule="evenodd" clip-rule="evenodd" d="M19.8373 9.6499C17.0007 9.6499 14.7007 11.9495 14.7 14.7859L14.7 14.7872H15.45L14.7 14.7846L14.7 14.7859C14.6911 17.614 16.9754 19.9139 19.8038 19.9235H19.8064H19.8373C22.6742 19.9235 24.9737 17.6241 24.9737 14.7872C24.9737 11.9504 22.6744 9.6499 19.8373 9.6499ZM16.2 14.7872C16.2 12.7787 17.8287 11.1499 19.8373 11.1499C21.8456 11.1499 23.4736 12.7785 23.4736 14.7872C23.4736 16.7957 21.8449 18.4235 19.8364 18.4235H19.8076C17.8079 18.416 16.1932 16.7897 16.2 14.7897V14.7872ZM13.75 26.7865C13.75 25.9893 14.3053 25.0844 15.4419 24.3384C16.5584 23.6056 18.1245 23.1118 19.8446 23.1118C21.5556 23.1118 23.1226 23.6009 24.2421 24.3296C25.3822 25.0718 25.9391 25.9716 25.9391 26.7659C25.9391 27.1511 25.8152 27.4376 25.5916 27.6787C25.3521 27.9371 24.9676 28.1736 24.411 28.3684C23.2884 28.7613 21.6826 28.9118 19.8446 28.9118C18.0152 28.9118 16.4085 28.7665 15.2825 28.378C14.724 28.1853 14.3382 27.9507 14.0979 27.6939C13.874 27.4548 13.75 27.1704 13.75 26.7865ZM19.8446 21.6118C17.8528 21.6118 15.9966 22.18 14.6188 23.0844C13.261 23.9756 12.25 25.283 12.25 26.7865C12.25 27.553 12.5201 28.2033 13.0027 28.719C13.4689 29.217 14.102 29.5574 14.7932 29.7959C16.1665 30.2698 17.9821 30.4118 19.8446 30.4118C21.7184 30.4118 23.5348 30.2643 24.9065 29.7842C25.597 29.5425 26.2278 29.1988 26.6916 28.6986C27.1714 28.1812 27.4391 27.5307 27.4391 26.7659C27.4391 25.2595 26.4196 23.9573 25.0604 23.0725C23.6806 22.1743 21.8253 21.6118 19.8446 21.6118Z" fill="#A9A9A9"/>
</svg>
