<svg width="40" height="40" viewBox="0 0 40 40" fill="none" xmlns="http://www.w3.org/2000/svg">
<rect opacity="0.01" width="40" height="40" fill="white"/>
<rect opacity="0.01" x="8" y="8" width="24" height="24" fill="white"/>
<path fill-rule="evenodd" clip-rule="evenodd" d="M19.9702 9.75C18.3689 9.75 17.0382 9.80708 15.9588 10.028C14.8658 10.2517 13.965 10.6561 13.2882 11.3975C12.6194 12.1302 12.2473 13.1074 12.034 14.3191C11.8211 15.5287 11.7542 17.0474 11.7542 18.929C11.7542 19.6551 11.753 20.3368 11.7519 20.9764L11.7519 20.9766C11.7464 24.0013 11.7426 26.0807 11.879 27.4369C11.9604 28.2461 12.1007 28.9329 12.4092 29.4262C12.5751 29.6915 12.7955 29.9113 13.0816 30.0577C13.3626 30.2015 13.6593 30.25 13.9432 30.25C14.592 30.25 15.2211 29.8931 15.7289 29.5403C16.2241 29.1962 16.7454 28.7508 17.2384 28.3295L17.2399 28.3282L17.3567 28.2284C17.9016 27.7633 18.4134 27.3339 18.8937 27.0186C19.3919 26.6915 19.7421 26.566 19.9702 26.566C20.1984 26.566 20.5486 26.6915 21.0468 27.0186C21.5271 27.3339 22.0389 27.7633 22.5839 28.2284L22.7006 28.3282L22.7027 28.33C23.1956 28.7512 23.7166 29.1964 24.2116 29.5403C24.7194 29.8931 25.3485 30.25 25.9973 30.25C26.2812 30.25 26.5779 30.2015 26.8589 30.0577C27.145 29.9113 27.3654 29.6915 27.5313 29.4262C27.8398 28.9329 27.9801 28.2461 28.0615 27.4369C28.1978 26.0816 28.1941 24.0039 28.1887 20.9823L28.1887 20.9766C28.1875 20.337 28.1863 19.6552 28.1863 18.929C28.1863 17.0474 28.1194 15.5287 27.9065 14.3191C27.6932 13.1074 27.3211 12.1302 26.6523 11.3975C25.9755 10.6561 25.0747 10.2517 23.9817 10.028C22.9023 9.80708 21.5716 9.75 19.9702 9.75ZM13.2542 18.929C13.2542 17.0621 13.3223 15.6529 13.5113 14.5792C13.6999 13.5076 13.9967 12.8462 14.396 12.4088C14.7874 11.98 15.3539 11.6829 16.2595 11.4975C17.1788 11.3094 18.3781 11.25 19.9702 11.25C21.5624 11.25 22.7618 11.3094 23.681 11.4975C24.5866 11.6829 25.1531 11.98 25.5445 12.4088C25.9438 12.8462 26.2406 13.5076 26.4292 14.5792C26.6182 15.6529 26.6863 17.0621 26.6863 18.929C26.6863 19.6729 26.6874 20.3657 26.6885 21.0109C26.6937 24.0367 26.697 26.014 26.569 27.2868C26.4902 28.0713 26.3705 28.4535 26.2595 28.6309C26.2157 28.7009 26.1865 28.7168 26.1757 28.7223C26.1598 28.7305 26.1123 28.75 25.9973 28.75C25.8485 28.75 25.5539 28.6464 25.0675 28.3085C24.6366 28.009 24.1704 27.6109 23.6586 27.1737L23.6579 27.1731L23.5577 27.0876C23.0236 26.6317 22.4419 26.1401 21.8701 25.7647C21.3161 25.401 20.6556 25.066 19.9702 25.066C19.2849 25.066 18.6244 25.401 18.0704 25.7647C17.4986 26.1401 16.9169 26.6317 16.3828 27.0876L16.2826 27.1732L16.2805 27.175C15.7693 27.6116 15.3035 28.0093 14.873 28.3085C14.3866 28.6464 14.092 28.75 13.9432 28.75C13.8282 28.75 13.7807 28.7305 13.7648 28.7223C13.754 28.7168 13.7248 28.7009 13.681 28.6309C13.5701 28.4535 13.4504 28.0713 13.3715 27.2868C13.2435 26.0141 13.2468 24.0369 13.252 21.0115L13.252 21.011C13.2531 20.3658 13.2542 19.6729 13.2542 18.929ZM16.5425 16.4677C16.1283 16.4677 15.7925 16.8035 15.7925 17.2177C15.7925 17.6319 16.1283 17.9677 16.5425 17.9677H23.3975C23.8117 17.9677 24.1475 17.6319 24.1475 17.2177C24.1475 16.8035 23.8117 16.4677 23.3975 16.4677H16.5425Z" fill="#A9A9A9"/>
</svg>
