<svg width="22" height="22" viewBox="0 0 22 22" fill="none" xmlns="http://www.w3.org/2000/svg">
<g clip-path="url(#clip0_10_2415)">
<path fill-rule="evenodd" clip-rule="evenodd" d="M5.81025 4.97765C5.3977 5.35978 5.02729 5.68822 4.69801 5.97845C4.65154 6.01941 4.60603 6.05949 4.56144 6.09875C4.28253 6.34435 4.03964 6.55824 3.82146 6.75963C3.31615 7.22608 2.99696 7.57827 2.77124 7.97216C2.31874 8.76176 2.15039 9.86897 2.15039 12.713C2.15039 14.7691 2.27345 16.2451 2.55155 17.3153C2.82454 18.3658 3.23151 18.9679 3.77061 19.3548C4.33364 19.759 5.13743 19.9997 6.34784 20.1245C7.55705 20.2491 9.06541 20.25 10.9864 20.25C12.9074 20.25 14.4157 20.2491 15.625 20.1245C16.8354 19.9997 17.6391 19.759 18.2022 19.3548C18.7413 18.9679 19.1482 18.3658 19.4212 17.3153C19.6993 16.2451 19.8224 14.7691 19.8224 12.713C19.8224 9.86889 19.6543 8.76166 19.202 7.97204C18.9764 7.57818 18.6573 7.22601 18.1521 6.75958C17.9338 6.55801 17.6907 6.34391 17.4115 6.09801C17.3671 6.05898 17.3219 6.01914 17.2757 5.97843C16.9465 5.6882 16.5761 5.35976 16.1635 4.97762C15.9193 4.78041 15.6663 4.56703 15.4041 4.34588C14.833 3.86414 14.2181 3.34554 13.5548 2.87695C12.5699 2.18118 11.6779 1.75 10.9584 1.75C10.2413 1.75 9.36144 2.18121 8.38952 2.87803C7.75523 3.33278 7.175 3.827 6.62981 4.29137C6.34815 4.53128 6.07583 4.76323 5.81025 4.97765Z" fill="#F9D8D8"/>
<path fill-rule="evenodd" clip-rule="evenodd" d="M4.69801 5.97845C5.02729 5.68822 5.3977 5.35978 5.81025 4.97765C6.07583 4.76323 6.34815 4.53128 6.62981 4.29137L6.6299 4.2913C7.17506 3.82695 7.75526 3.33276 8.38952 2.87803C9.36144 2.18121 10.2413 1.75 10.9584 1.75C11.6779 1.75 12.5699 2.18118 13.5548 2.87695C14.2181 3.34554 14.833 3.86414 15.4041 4.34588C15.6663 4.56703 15.9193 4.78041 16.1635 4.97762C16.5761 5.35976 16.9465 5.6882 17.2757 5.97843L17.4115 6.09801L17.412 6.09844C17.691 6.34416 17.9339 6.55813 18.1521 6.75958C18.6573 7.22601 18.9764 7.57818 19.202 7.97204C19.6543 8.76166 19.8224 9.86889 19.8224 12.713C19.8224 14.7691 19.6993 16.2451 19.4212 17.3153C19.1482 18.3658 18.7413 18.9679 18.2022 19.3548C17.6391 19.759 16.8354 19.9997 15.625 20.1245C14.4157 20.2491 12.9074 20.25 10.9864 20.25C9.06541 20.25 7.55705 20.2491 6.34784 20.1245C5.13743 19.9997 4.33364 19.759 3.77061 19.3548C3.23151 18.9679 2.82454 18.3658 2.55155 17.3153C2.27345 16.2451 2.15039 14.7691 2.15039 12.713C2.15039 9.86897 2.31874 8.76176 2.77124 7.97216C2.99696 7.57827 3.31615 7.22608 3.82146 6.75963C4.03964 6.55824 4.28253 6.34435 4.56144 6.09875L4.69801 5.97845ZM10.9584 0.25C9.73252 0.25 8.51584 0.941785 7.51551 1.65897C6.83543 2.14655 6.1543 2.72566 5.58032 3.21367C5.30878 3.44454 5.06122 3.65502 4.8491 3.82577C4.83547 3.83674 4.82223 3.84818 4.8094 3.86008C4.40338 4.23661 4.038 4.56069 3.70619 4.85316L3.5717 4.97161L3.5705 4.97266C3.29341 5.21665 3.03589 5.44341 2.80404 5.65743C2.26469 6.1553 1.81069 6.63148 1.46979 7.22634C0.789044 8.41424 0.650391 9.92603 0.650391 12.713C0.650391 14.8004 0.772203 16.432 1.09976 17.6926C1.43243 18.9727 1.9919 19.9245 2.89592 20.5734C3.77601 21.2051 4.89204 21.4824 6.19404 21.6166C7.4887 21.75 9.07297 21.75 10.9492 21.75H11.0236C12.8998 21.75 14.4841 21.75 15.7788 21.6166C17.0808 21.4824 18.1968 21.2051 19.0769 20.5734C19.9809 19.9245 20.5404 18.9727 20.873 17.6926C21.2006 16.432 21.3224 14.8004 21.3224 12.713C21.3224 9.92611 21.184 8.41434 20.5036 7.22646C20.1628 6.63157 19.7089 6.15537 19.1696 5.65748C18.9372 5.4429 18.679 5.21553 18.4011 4.97083L18.2676 4.85318C17.9358 4.5607 17.5704 4.23662 17.1644 3.86008C17.1516 3.84822 17.1384 3.83681 17.1248 3.82587C16.9223 3.66274 16.6903 3.46729 16.4374 3.25416C15.8445 2.75449 15.1362 2.15759 14.4203 1.6518C13.4074 0.936325 12.1809 0.25 10.9584 0.25ZM8.0791 14.3857C7.66489 14.3857 7.3291 14.7215 7.3291 15.1357C7.3291 15.55 7.66489 15.8857 8.0791 15.8857H13.8941C14.3083 15.8857 14.6441 15.55 14.6441 15.1357C14.6441 14.7215 14.3083 14.3857 13.8941 14.3857H8.0791Z" fill="#E23E3E"/>
</g>
<defs>
<clipPath id="clip0_10_2415">
<rect width="20.672" height="21.5" fill="white" transform="translate(0.650391 0.25)"/>
</clipPath>
</defs>
</svg>
