<svg width="16" height="22" viewBox="0 0 16 22" fill="none" xmlns="http://www.w3.org/2000/svg">
<g clip-path="url(#clip0_0_2827)">
<path fill-rule="evenodd" clip-rule="evenodd" d="M12.2236 5.78717C12.2236 8.2099 10.26 10.1735 7.83725 10.1735H7.80634C5.39179 10.1654 3.4418 8.20172 3.44998 5.78717C3.44998 3.36445 5.41452 1.3999 7.83725 1.3999C10.26 1.3999 12.2236 3.36445 12.2236 5.78717ZM1 17.7865C1 20.0873 4.15273 20.6618 7.84455 20.6618C11.5564 20.6618 14.6891 20.0658 14.6891 17.7659C14.6891 15.4652 11.5364 13.3618 7.84455 13.3618C4.13273 13.3618 1 15.4857 1 17.7865Z" fill="#F9D8D8"/>
<path fill-rule="evenodd" clip-rule="evenodd" d="M7.83725 0.649902C5.00073 0.649902 2.70066 2.94954 2.69998 5.7859L2.69998 5.78717H3.44998L2.69998 5.78463L2.69998 5.7859C2.69108 8.61399 4.97538 10.9139 7.8038 10.9235H7.8064H7.83725C10.6742 10.9235 12.9737 8.62411 12.9737 5.78717C12.9737 2.95043 10.6744 0.649902 7.83725 0.649902ZM4.19998 5.78717C4.19998 3.77866 5.82873 2.1499 7.83725 2.1499C9.84556 2.1499 11.4736 3.77846 11.4736 5.78717C11.4736 7.79569 9.84488 9.42354 7.83637 9.42354H7.80755C5.80792 9.41604 4.1932 7.78969 4.19998 5.78971V5.78717ZM1.75 17.7865C1.75 16.9893 2.30533 16.0844 3.44188 15.3384C4.55835 14.6056 6.12445 14.1118 7.84455 14.1118C9.55559 14.1118 11.1226 14.6009 12.2421 15.3296C13.3822 16.0718 13.9391 16.9716 13.9391 17.7659C13.9391 18.1511 13.8152 18.4376 13.5916 18.6787C13.3521 18.9371 12.9676 19.1736 12.411 19.3684C11.2884 19.7613 9.68255 19.9118 7.84455 19.9118C6.01519 19.9118 4.40853 19.7665 3.28249 19.378C2.72404 19.1853 2.3382 18.9507 2.09786 18.6939C1.87403 18.4548 1.75 18.1704 1.75 17.7865ZM7.84455 12.6118C5.85282 12.6118 3.99665 13.18 2.6188 14.0844C1.26103 14.9756 0.25 16.283 0.25 17.7865C0.25 18.553 0.520062 19.2033 1.00274 19.719C1.4689 20.217 2.10198 20.5574 2.79319 20.7959C4.16647 21.2698 5.98208 21.4118 7.84455 21.4118C9.71836 21.4118 11.5348 21.2643 12.9065 20.7842C13.597 20.5425 14.2278 20.1988 14.6916 19.6986C15.1714 19.1812 15.4391 18.5307 15.4391 17.7659C15.4391 16.2595 14.4196 14.9573 13.0604 14.0725C11.6806 13.1743 9.82532 12.6118 7.84455 12.6118Z" fill="#E23E3E"/>
</g>
<defs>
<clipPath id="clip0_0_2827">
<rect width="15.1891" height="20.7619" fill="white" transform="translate(0.25 0.649902)"/>
</clipPath>
</defs>
</svg>
