<svg width="48" height="48" viewBox="0 0 48 48" fill="none" xmlns="http://www.w3.org/2000/svg">
<rect opacity="0.01" width="40" height="40" fill="white"/>
<path d="M0 24C0 10.7452 10.7452 0 24 0C37.2548 0 48 10.7452 48 24C48 37.2548 37.2548 48 24 48C10.7452 48 0 37.2548 0 24Z" fill="#E23E3E"/>
<rect opacity="0.01" x="13.5" y="13.5" width="21" height="21" fill="#181818"/>
<path fill-rule="evenodd" clip-rule="evenodd" d="M25.2132 18.2141C25.2132 17.5436 24.6701 17 24.0001 17C23.3302 17 22.787 17.5436 22.787 18.2141V22.7859H18.2131C17.5431 22.7859 17 23.3295 17 24C17 24.6705 17.5431 25.2141 18.2131 25.2141H22.787V29.7859C22.787 30.4565 23.3302 31 24.0001 31C24.6701 31 25.2132 30.4565 25.2132 29.7859V25.2141H29.7869C30.4569 25.2141 31 24.6705 31 24C31 23.3295 30.4569 22.7859 29.7869 22.7859H25.2132V18.2141Z" fill="#181818"/>
</svg>
