<svg width="40" height="40" viewBox="0 0 40 40" fill="none" xmlns="http://www.w3.org/2000/svg">
<rect opacity="0.01" width="40" height="40" fill="white"/>
<rect opacity="0.01" x="8" y="8" width="24" height="24" fill="white"/>
<path fill-rule="evenodd" clip-rule="evenodd" d="M19.9961 9.76416C17.5214 9.76416 15.7216 10.8965 14.5601 12.3939C13.417 13.8677 12.8851 15.6988 12.8851 17.1837C12.8851 17.6099 12.8981 17.9264 12.9079 18.1665L12.908 18.1685C12.91 18.2171 12.9118 18.2626 12.9134 18.3052C12.9231 18.5635 12.9211 18.6876 12.9013 18.8105C12.8561 19.0901 12.7131 19.4345 12.1417 20.6938C12.136 20.7064 12.1306 20.7191 12.1256 20.7319C11.7125 21.7943 11.8046 22.7717 12.2955 23.6C12.7639 24.3904 13.5514 24.9724 14.4027 25.3971C16.105 26.2463 18.3556 26.6118 19.9961 26.6118C21.6361 26.6118 23.8864 26.2463 25.5887 25.3971C26.44 24.9724 27.2275 24.3905 27.6961 23.6001C28.187 22.7719 28.2794 21.7945 27.8666 20.7321C27.8616 20.7192 27.8562 20.7064 27.8505 20.6938C27.2791 19.4345 27.1361 19.0901 27.0909 18.8105C27.071 18.6876 27.0691 18.5635 27.0787 18.3052C27.0803 18.262 27.0822 18.2159 27.0843 18.1665C27.0941 17.9264 27.107 17.6099 27.107 17.1837C27.107 15.6987 26.5749 13.8676 25.4317 12.3939C24.2701 10.8965 22.4703 9.76416 19.9961 9.76416ZM14.3851 17.1837C14.3851 16.0143 14.8166 14.5106 15.7454 13.3132C16.6558 12.1394 18.0365 11.2642 19.9961 11.2642C21.9552 11.2642 23.3358 12.1394 24.2465 13.3133C25.1754 14.5107 25.607 16.0144 25.607 17.1837C25.607 17.5768 25.5955 17.8608 25.5857 18.0998C25.5836 18.1515 25.5816 18.201 25.5798 18.2491C25.5698 18.515 25.5646 18.7681 25.6101 19.0497C25.6946 19.5728 25.9515 20.139 26.4655 21.2716L26.4755 21.2937C26.7241 21.9463 26.6442 22.433 26.4057 22.8352C26.1426 23.2791 25.6384 23.6961 24.9191 24.0549C23.4805 24.7726 21.4751 25.1118 19.9961 25.1118C18.5165 25.1118 16.5109 24.7725 15.0723 24.0549C14.3531 23.6961 13.8489 23.2791 13.5859 22.8353C13.3476 22.4331 13.2678 21.9465 13.5167 21.2938L13.5267 21.2717L13.5268 21.2714C14.0407 20.1389 14.2976 19.5727 14.3821 19.0497C14.4276 18.7681 14.4223 18.515 14.4124 18.2491C14.4107 18.205 14.4089 18.1597 14.407 18.1127L14.4065 18.0998C14.3967 17.8608 14.3851 17.5768 14.3851 17.1837ZM18.2453 28.0125C17.9693 27.7036 17.4952 27.6769 17.1863 27.9528C16.8774 28.2287 16.8506 28.7029 17.1266 29.0118C18.7343 30.8117 21.2752 30.7879 22.8647 29.0124C23.141 28.7038 23.1148 28.2297 22.8062 27.9534C22.4976 27.6771 22.0234 27.7033 21.7471 28.0119C20.748 29.1279 19.2508 29.1383 18.2453 28.0125Z" fill="#A9A9A9"/>
</svg>
